<mxfile host="Electron" modified="2024-04-12T07:58:16.543Z" agent="Mozilla/5.0 (Windows NT 10.0; Win64; x64) AppleWebKit/537.36 (KHTML, like Gecko) draw.io/24.1.0 Chrome/120.0.6099.109 Electron/28.1.0 Safari/537.36" etag="10BkHrfpc6HEx-4Fgnk-" version="24.1.0" type="device">
  <diagram name="Page-1" id="XTs7JJ6mczBnE6e2hhl9">
    <mxGraphModel dx="2284" dy="836" grid="1" gridSize="10" guides="1" tooltips="1" connect="1" arrows="1" fold="1" page="1" pageScale="1" pageWidth="850" pageHeight="1100" math="0" shadow="0">
      <root>
        <mxCell id="0" />
        <mxCell id="1" parent="0" />
        <mxCell id="9bo8uZbP6z67TJfgycmk-1" value="NODE" style="rounded=0;whiteSpace=wrap;html=1;" vertex="1" parent="1">
          <mxGeometry x="360" y="390" width="120" height="60" as="geometry" />
        </mxCell>
        <mxCell id="9bo8uZbP6z67TJfgycmk-3" style="edgeStyle=orthogonalEdgeStyle;rounded=0;orthogonalLoop=1;jettySize=auto;html=1;exitX=0.5;exitY=0;exitDx=0;exitDy=0;entryX=0.5;entryY=1;entryDx=0;entryDy=0;" edge="1" parent="1" source="9bo8uZbP6z67TJfgycmk-2" target="9bo8uZbP6z67TJfgycmk-1">
          <mxGeometry relative="1" as="geometry" />
        </mxCell>
        <mxCell id="9bo8uZbP6z67TJfgycmk-2" value="SHAPE" style="rounded=0;whiteSpace=wrap;html=1;" vertex="1" parent="1">
          <mxGeometry x="160" y="560" width="120" height="60" as="geometry" />
        </mxCell>
        <mxCell id="9bo8uZbP6z67TJfgycmk-7" style="edgeStyle=orthogonalEdgeStyle;rounded=0;orthogonalLoop=1;jettySize=auto;html=1;entryX=0.5;entryY=1;entryDx=0;entryDy=0;exitX=0.5;exitY=0;exitDx=0;exitDy=0;" edge="1" parent="1" source="9bo8uZbP6z67TJfgycmk-4" target="9bo8uZbP6z67TJfgycmk-2">
          <mxGeometry relative="1" as="geometry" />
        </mxCell>
        <mxCell id="9bo8uZbP6z67TJfgycmk-4" value="CIRCLE" style="rounded=0;whiteSpace=wrap;html=1;" vertex="1" parent="1">
          <mxGeometry x="20" y="750" width="120" height="60" as="geometry" />
        </mxCell>
        <mxCell id="9bo8uZbP6z67TJfgycmk-8" style="edgeStyle=orthogonalEdgeStyle;rounded=0;orthogonalLoop=1;jettySize=auto;html=1;exitX=0.5;exitY=0;exitDx=0;exitDy=0;" edge="1" parent="1" source="9bo8uZbP6z67TJfgycmk-5">
          <mxGeometry relative="1" as="geometry">
            <mxPoint x="220" y="620" as="targetPoint" />
          </mxGeometry>
        </mxCell>
        <mxCell id="9bo8uZbP6z67TJfgycmk-5" value="RECT" style="rounded=0;whiteSpace=wrap;html=1;" vertex="1" parent="1">
          <mxGeometry x="160" y="750" width="120" height="60" as="geometry" />
        </mxCell>
        <mxCell id="9bo8uZbP6z67TJfgycmk-9" style="edgeStyle=orthogonalEdgeStyle;rounded=0;orthogonalLoop=1;jettySize=auto;html=1;entryX=0.5;entryY=1;entryDx=0;entryDy=0;exitX=0.5;exitY=0;exitDx=0;exitDy=0;" edge="1" parent="1" source="9bo8uZbP6z67TJfgycmk-6" target="9bo8uZbP6z67TJfgycmk-2">
          <mxGeometry relative="1" as="geometry" />
        </mxCell>
        <mxCell id="9bo8uZbP6z67TJfgycmk-6" value="ARC" style="rounded=0;whiteSpace=wrap;html=1;" vertex="1" parent="1">
          <mxGeometry x="295" y="750" width="120" height="60" as="geometry" />
        </mxCell>
        <mxCell id="9bo8uZbP6z67TJfgycmk-12" style="edgeStyle=orthogonalEdgeStyle;rounded=0;orthogonalLoop=1;jettySize=auto;html=1;entryX=0.5;entryY=1;entryDx=0;entryDy=0;" edge="1" parent="1" source="9bo8uZbP6z67TJfgycmk-10" target="9bo8uZbP6z67TJfgycmk-1">
          <mxGeometry relative="1" as="geometry" />
        </mxCell>
        <mxCell id="9bo8uZbP6z67TJfgycmk-10" value="STAGE" style="rounded=0;whiteSpace=wrap;html=1;" vertex="1" parent="1">
          <mxGeometry x="480" y="560" width="120" height="60" as="geometry" />
        </mxCell>
        <mxCell id="9bo8uZbP6z67TJfgycmk-13" style="edgeStyle=orthogonalEdgeStyle;rounded=0;orthogonalLoop=1;jettySize=auto;html=1;entryX=0.5;entryY=1;entryDx=0;entryDy=0;exitX=0.5;exitY=0;exitDx=0;exitDy=0;" edge="1" parent="1" source="9bo8uZbP6z67TJfgycmk-11" target="9bo8uZbP6z67TJfgycmk-1">
          <mxGeometry relative="1" as="geometry" />
        </mxCell>
        <mxCell id="9bo8uZbP6z67TJfgycmk-11" value="LAYER" style="rounded=0;whiteSpace=wrap;html=1;" vertex="1" parent="1">
          <mxGeometry x="800" y="560" width="120" height="60" as="geometry" />
        </mxCell>
        <mxCell id="9bo8uZbP6z67TJfgycmk-15" style="edgeStyle=orthogonalEdgeStyle;rounded=0;orthogonalLoop=1;jettySize=auto;html=1;entryX=0.5;entryY=1;entryDx=0;entryDy=0;exitX=0.5;exitY=0;exitDx=0;exitDy=0;" edge="1" parent="1" source="9bo8uZbP6z67TJfgycmk-14" target="9bo8uZbP6z67TJfgycmk-2">
          <mxGeometry relative="1" as="geometry" />
        </mxCell>
        <mxCell id="9bo8uZbP6z67TJfgycmk-14" value="LINE" style="rounded=0;whiteSpace=wrap;html=1;" vertex="1" parent="1">
          <mxGeometry x="-130" y="750" width="120" height="60" as="geometry" />
        </mxCell>
        <mxCell id="9bo8uZbP6z67TJfgycmk-17" value="?" style="edgeStyle=orthogonalEdgeStyle;rounded=0;orthogonalLoop=1;jettySize=auto;html=1;entryX=0.5;entryY=1;entryDx=0;entryDy=0;" edge="1" parent="1" source="9bo8uZbP6z67TJfgycmk-16" target="9bo8uZbP6z67TJfgycmk-14">
          <mxGeometry relative="1" as="geometry" />
        </mxCell>
        <mxCell id="9bo8uZbP6z67TJfgycmk-16" value="ARROW" style="rounded=0;whiteSpace=wrap;html=1;" vertex="1" parent="1">
          <mxGeometry x="-130" y="880" width="120" height="60" as="geometry" />
        </mxCell>
        <mxCell id="9bo8uZbP6z67TJfgycmk-19" style="edgeStyle=orthogonalEdgeStyle;rounded=0;orthogonalLoop=1;jettySize=auto;html=1;entryX=0.5;entryY=1;entryDx=0;entryDy=0;exitX=0.5;exitY=0;exitDx=0;exitDy=0;" edge="1" parent="1" source="9bo8uZbP6z67TJfgycmk-18" target="9bo8uZbP6z67TJfgycmk-2">
          <mxGeometry relative="1" as="geometry" />
        </mxCell>
        <mxCell id="9bo8uZbP6z67TJfgycmk-18" value="ELLIPSE" style="rounded=0;whiteSpace=wrap;html=1;" vertex="1" parent="1">
          <mxGeometry x="-270" y="750" width="120" height="60" as="geometry" />
        </mxCell>
        <mxCell id="9bo8uZbP6z67TJfgycmk-21" style="edgeStyle=orthogonalEdgeStyle;rounded=0;orthogonalLoop=1;jettySize=auto;html=1;entryX=0.5;entryY=1;entryDx=0;entryDy=0;exitX=0.5;exitY=0;exitDx=0;exitDy=0;" edge="1" parent="1" source="9bo8uZbP6z67TJfgycmk-20" target="9bo8uZbP6z67TJfgycmk-2">
          <mxGeometry relative="1" as="geometry" />
        </mxCell>
        <mxCell id="9bo8uZbP6z67TJfgycmk-20" value="REGULAR POLYGON" style="rounded=0;whiteSpace=wrap;html=1;" vertex="1" parent="1">
          <mxGeometry x="-420" y="750" width="120" height="60" as="geometry" />
        </mxCell>
        <mxCell id="9bo8uZbP6z67TJfgycmk-23" style="edgeStyle=orthogonalEdgeStyle;rounded=0;orthogonalLoop=1;jettySize=auto;html=1;entryX=0.5;entryY=1;entryDx=0;entryDy=0;exitX=0.5;exitY=0;exitDx=0;exitDy=0;" edge="1" parent="1" source="9bo8uZbP6z67TJfgycmk-22" target="9bo8uZbP6z67TJfgycmk-2">
          <mxGeometry relative="1" as="geometry" />
        </mxCell>
        <mxCell id="9bo8uZbP6z67TJfgycmk-22" value="RING" style="rounded=0;whiteSpace=wrap;html=1;" vertex="1" parent="1">
          <mxGeometry x="-560" y="750" width="120" height="60" as="geometry" />
        </mxCell>
        <mxCell id="9bo8uZbP6z67TJfgycmk-25" style="edgeStyle=orthogonalEdgeStyle;rounded=0;orthogonalLoop=1;jettySize=auto;html=1;entryX=0.5;entryY=1;entryDx=0;entryDy=0;exitX=0.5;exitY=0;exitDx=0;exitDy=0;" edge="1" parent="1" source="9bo8uZbP6z67TJfgycmk-24" target="9bo8uZbP6z67TJfgycmk-2">
          <mxGeometry relative="1" as="geometry" />
        </mxCell>
        <mxCell id="9bo8uZbP6z67TJfgycmk-24" value="STAR" style="rounded=0;whiteSpace=wrap;html=1;" vertex="1" parent="1">
          <mxGeometry x="-710" y="750" width="120" height="60" as="geometry" />
        </mxCell>
        <mxCell id="9bo8uZbP6z67TJfgycmk-27" style="edgeStyle=orthogonalEdgeStyle;rounded=0;orthogonalLoop=1;jettySize=auto;html=1;entryX=0.5;entryY=1;entryDx=0;entryDy=0;exitX=0.5;exitY=0;exitDx=0;exitDy=0;" edge="1" parent="1" source="9bo8uZbP6z67TJfgycmk-26" target="9bo8uZbP6z67TJfgycmk-2">
          <mxGeometry relative="1" as="geometry" />
        </mxCell>
        <mxCell id="9bo8uZbP6z67TJfgycmk-26" value="WEDGE" style="rounded=0;whiteSpace=wrap;html=1;" vertex="1" parent="1">
          <mxGeometry x="-850" y="750" width="120" height="60" as="geometry" />
        </mxCell>
      </root>
    </mxGraphModel>
  </diagram>
</mxfile>
